# xmcd
#
# Track frame offsets: 
#        150
#        50695
#        82968
#        133929
#        172039
#        213348
#        242730
#        265934
#        293801
#        325326
#
# Disc length: 4727 seconds
#
# Revision: 1
# Processed by: cddbd v1.5.2PL0 Copyright (c) Steve Scherf et al.
# Submitted via: ExactAudioCopy v0.95b3
#
DISCID=9712750a
DTITLE=Various Artist - Natural Born Chillers
DYEAR=2004
DGENRE=New Age
TTITLE0=Ishq - Alaya
TTITLE1=Anahata - Shakti
TTITLE2=Zen Mechanics - A New Philosophy
TTITLE3=Jirah - Disconnect
TTITLE4=Agalactia - Monochrome Rainbow Pixie
TTITLE5=Cosmic Fools - Be Yourself
TTITLE6=J.Viewz - Estha
TTITLE7=Son Kite - On Air (Midival Punditz Remix)
TTITLE8=Omar Faruk Tekbilek and Steve Shehan - Ya Bouy (Shulman Remix)
TTITLE9=Eastern Spirit - Under Water (Part One)
EXTD=YEAR: 2004
EXTT0=
EXTT1=
EXTT2=
EXTT3=
EXTT4=
EXTT5=
EXTT6=
EXTT7=
EXTT8=
EXTT9=
PLAYORDER=
